<?xml version="1.0" encoding="UTF-8"?> <svg xmlns="http://www.w3.org/2000/svg" xmlns:xlink="http://www.w3.org/1999/xlink" width="766px" height="480px" viewBox="0 0 766 480" version="1.1"><!-- Generator: Sketch 61 (89581) - https://sketch.com --><title>Blind Object Detection</title><desc>Created with Sketch.</desc><g id="AI-ML-casestudy" stroke="none" stroke-width="1" fill="none" fill-rule="evenodd"><g id="Blind-Object-Detection"><polygon id="Fill-1" fill="#7E42FF" fill-rule="nonzero" points="0 480 766 480 766 0 0 0"></polygon><rect id="Rectangle" fill-opacity="0" fill="#D8D8D8" x="123" y="0" width="520" height="480"></rect><g id="Hero-Image" transform="translate(151.000000, 15.000000)" fill-rule="nonzero"><g id="Group" transform="translate(40.906199, 0.000000)"><g transform="translate(273.475455, 253.006584)" id="Path"><g transform="translate(31.349856, 79.478508)"><path d="M0.691904567,53.3327282 C2.64751741,52.9521144 4.33643571,51.7661185 5.95117406,50.5999921 C7.40077374,49.5530836 8.85655508,48.4871885 10.0447588,47.151508 C16.1014626,40.3441738 13.5294498,28.9487219 19.0487906,21.6989573 C24.5641576,14.4544913 35.8033017,14.2553535 42.2370869,7.81229579 C44.2629058,5.7833861 45.7562186,3.17914032 48.1577942,1.61253062 C50.7836758,-0.10023123 54.3368067,-0.278616325 57.1207622,1.1630355 C59.9047177,2.60468733 61.8095526,5.60941648 61.9261211,8.74219434 C61.9649772,9.79042755 61.7870337,10.9128407 61.0871813,11.6939378 C60.3197721,12.5505395 59.0980108,12.8190003 57.9535203,12.9293871 C55.8142238,13.1355896 53.6515253,12.9558799 51.5126703,13.1638487 C49.3738154,13.3718174 47.165196,14.0345799 45.6988175,15.6056051 C43.909668,17.5223617 43.5802737,20.3977175 43.8756688,23.0028464 C44.1710639,25.6079753 44.9936665,28.1415735 45.1517404,30.7586242 C45.2917109,33.0771889 44.5671318,35.8492226 42.3722004,36.6104501 C41.3977056,36.9482337 40.3331351,36.8064971 39.3021222,36.7800042 C35.3997275,36.6793315 31.4880602,38.3951841 28.9182552,41.3336812 C27.1105606,43.4010055 25.9731349,45.9871478 24.1473369,48.0385765 C21.8000717,50.6759383 18.4491695,52.2557944 15.0121655,53.0633843 C11.5751616,53.8709743 8.01673218,53.9685562 4.48744487,54.0621643 L0.691904567,53.3327282 Z" fill="#69C799"></path><path d="M0.670710298,53.7720677 C0.318355579,53.681109 0.0706475627,53.354364 0.0927249261,52.9777242 C0.115243837,52.5511895 0.476429501,52.2187044 0.907379634,52.2482881 C9.2658694,52.700874 17.8023027,47.824426 21.6548026,40.3936271 C22.3860049,38.991273 22.9785613,37.4714673 23.5516897,36.0033226 C23.9009536,35.1100725 24.250659,34.2168224 24.633922,33.3385848 C28.3914893,24.6489346 35.4646349,17.3347042 44.0231456,13.2720277 C44.409941,13.0834871 44.872241,13.2592229 45.0559247,13.638512 C45.2444653,14.0253074 45.0744696,14.488932 44.6894404,14.671291 C36.4660641,18.5758935 29.6728594,25.605326 26.0534965,33.9549848 C25.6808306,34.8173266 25.3417223,35.6942395 24.9968739,36.5698277 C24.4074083,38.0777117 23.7998392,39.6310749 23.0355209,41.112466 C18.9097033,49.0682647 9.77364875,54.2780809 0.822602558,53.7919373 C0.77226617,53.7919373 0.717955856,53.7839895 0.670710298,53.7720677 Z" fill="#FFFFFF"></path></g><g transform="translate(3.973925, 75.063035)"><path d="M27.9035795,75.2060967 C28.3667626,73.2685873 27.9861489,71.2401191 27.5922887,69.2871556 C27.2390509,67.5342129 26.871242,65.7680239 26.1471045,64.1334159 C22.4566524,55.802302 11.018812,53.4276608 6.70312906,45.4025393 C2.39097845,37.3831578 6.86120298,27.0694967 3.65866065,18.5463099 C2.6501667,15.862144 0.897224046,13.4252447 0.465390819,10.5905112 C-0.00706475627,7.49129093 1.3012398,4.18277726 3.76595664,2.24526785 C6.23067348,0.307758445 9.75422067,-0.182800569 12.6543031,1.00805241 C13.624824,1.40632805 14.5723844,2.03288362 14.9945036,2.99369047 C15.4568036,4.0467807 15.1954076,5.26986663 14.8223002,6.3578391 C14.1246555,8.39072271 13.0658252,10.2849605 12.3699467,12.3182857 C11.6740682,14.3516108 11.3636605,16.6361764 12.1867046,18.6213729 C13.1907831,21.0432596 15.6722787,22.5334817 18.1661377,23.3428378 C20.6599966,24.1517524 23.3066309,24.4520045 25.754569,25.3911756 C27.9234492,26.2234922 30.1466396,28.0303036 29.9311646,30.3431282 C29.8353488,31.3701671 29.2657529,32.2806376 28.8149331,33.2083284 C27.1083529,36.7190707 27.0509518,40.9901574 28.6630408,44.545496 C29.7969342,47.0464197 31.6805749,49.1526002 32.7919493,51.6636795 C34.2212378,54.8922731 34.2724573,58.5959716 33.5854098,62.0590268 C32.8983622,65.522082 31.5141115,68.8018951 30.1386918,72.0534492 L27.9035795,75.2060967 Z" fill="#A4DDBC"></path><path d="M28.2947904,75.4070007 C28.0660689,75.6900325 27.6660271,75.7801081 27.3326589,75.6043723 C26.9538114,75.4074422 26.8005945,74.9407268 27.0059139,74.5609961 C30.8769588,67.1394697 29.9713454,57.3503668 24.8012684,50.7673386 C23.8272152,49.5212922 22.6893479,48.3529581 21.5898952,47.2234802 C20.9213926,46.5355496 20.25289,45.8476189 19.6117634,45.1354032 C13.2565736,38.118334 9.52549919,28.6520022 9.369633,19.1794886 C9.35815277,18.7494216 9.70918285,18.4014823 10.1308605,18.390608 C10.5609275,18.379405 10.9128407,18.7260196 10.9194639,19.1521127 C11.0704731,28.2541681 14.6580446,37.3473925 20.7606694,44.0982086 C21.3911989,44.7945287 22.0495459,45.4661221 22.7039189,46.1425725 C23.8325137,47.3034003 24.9951077,48.4991103 26.0278867,49.8078563 C31.5626817,56.8562754 32.5239301,67.3297765 28.3769182,75.2767443 C28.3543993,75.3226652 28.3252572,75.3690276 28.2947904,75.4070007 Z" fill="#FFFFFF"></path></g><g transform="translate(0.000000, 90.958737)"><path d="M32.7689889,45.0254579 C35.0027765,43.5489238 36.8899495,30.5917193 38.5748939,32.4113356 C40.2598382,34.2305103 42.6989454,42.5995972 39.0884134,46.3147759 C35.4778813,50.0299546 33.5094636,52.0517996 34.194745,59.384575 C34.5241393,63.0564821 32.9323614,60.7268787 31.6818995,59.9925856 C31.438607,59.8614461 30.8725434,58.833524 30.1205884,57.226292 C27.1330796,54.695343 25.1213902,54.9465834 21.8861734,55.2521342 C18.0305826,55.6362803 14.0738776,49.6135756 13.7453664,47.5413942 C13.4172968,45.4696545 22.0769218,51.1214595 23.9702765,50.4498661 C25.890124,49.7667925 24.5849103,48.3971128 22.0755972,47.7789467 C19.5835044,47.2009613 6.82941158,46.4609281 2.74068389,35.4107662 C-1.3573163,24.4113822 7.64185855,35.2840421 14.4831919,38.5148435 C21.3245253,41.7456448 25.5792747,44.2505424 21.36868,40.8320835 C17.1585268,37.4136246 8.00525195,34.7510945 5.18376491,30.5012021 C2.34505753,26.2115704 -2.68416584,19.1423987 3.07625981,22.1780361 C8.86273674,25.2026349 18.6107758,36.3662745 20.696645,36.5066865 C21.0110267,36.5128681 21.1779316,36.3940919 21.1982427,36.1499163 C21.200892,35.8660014 21.0397273,35.4178309 20.6953204,34.9060776 C19.6051402,33.0197877 16.7103563,29.9784101 14.2200297,28.3168678 C10.4116846,25.7616337 4.79167094,21.8181751 5.73128352,19.5786474 C6.688558,17.3788589 8.85434734,16.5430099 13.1316157,22.8045917 C15.7654452,26.6177939 17.6813188,28.9023595 19.1821379,30.8005712 C17.9126895,26.8262042 17.9095987,22.8253444 15.5875016,14.0765269 C13.2238991,5.15727208 15.8259371,3.5226641 18.7193964,4.16379073 C21.6216866,4.75369788 20.686931,13.3943363 19.8859643,19.1521127 C19.1282691,24.9385896 20.6789832,33.9245181 22.3003447,31.6748347 C23.8952134,29.4366316 21.4410937,11.3755822 23.4020051,3.23654147 C25.3629166,-4.9024993 27.8700219,5.36744858 29.556291,11.3287782 C31.2165087,17.3015881 26.1126638,28.7200004 25.8079962,35.4893616 C25.5298214,42.246801 26.7189082,36.086775 29.365101,26.7118435 C32.0108522,17.3369119 29.2154165,0.223422917 36.2629524,12.3575834 C43.3369812,24.4811467 33.3800903,38.1708781 31.8382072,41.1870875 C30.2967657,44.2037384 30.50915,46.5134722 32.7689889,45.0254579 Z" fill="#44C184"></path><path d="M21.1986843,36.1507994 C21.0110267,35.7136676 20.8666407,35.3047948 20.6957619,34.9069607 C21.0401688,35.4182725 21.2013336,35.8668845 21.1986843,36.1507994 Z" fill="#ADADEA"></path></g><g transform="translate(18.986532, 0.000000)"><path d="M4.48876952,106.593926 C3.09038932,100.947419 1.70437245,95.2973804 0.910912012,89.5391625 C0.152333807,84.0366005 -0.052985672,78.4064313 0.801408289,72.9016615 C1.54055841,68.1404573 2.69387988,62.1848678 6.30132105,58.7032676 C8.18407859,56.8863006 11.0753301,55.7921465 13.6857575,56.3679241 C16.3222363,56.9494418 17.3453013,59.4004707 19.5190385,60.7145154 C22.2614886,62.3729669 26.1104561,60.9176271 27.8316073,58.2140332 C29.5527586,55.5104393 29.514344,52.0080864 28.6723133,48.9159309 C27.8302827,45.8237754 26.2707377,42.9828602 25.0719369,40.010364 C23.848851,36.9769343 22.9918077,33.7125754 23.2982415,30.4561643 C23.6046753,27.1997532 25.2242707,23.947316 28.0364853,22.2773843 C30.8482583,20.6070109 34.8760524,20.9183018 36.9875315,23.4161347 C38.7576944,25.5108349 38.9113529,28.5513294 40.3852377,30.864154 C42.0065992,33.4087909 44.8797473,34.5744756 47.7131561,35.189551 C50.1209134,35.7119014 53.9323494,36.6687343 56.1277224,35.2116283 C57.4117418,34.3594421 58.0272587,32.8188837 58.5200255,31.3586869 C60.7454237,24.76462 62.0241446,17.8084844 65.1829737,11.555292 C66.736337,8.47947371 68.7595066,5.59705316 71.4944504,3.45908129 C73.933999,1.55248019 78.4324826,-1.34186214 81.238957,1.33347275 C82.6360126,2.6651793 83.1574799,4.66450533 83.4113696,6.57772964 C84.3880721,13.9462704 82.1578169,21.6839447 77.4085345,27.4019818 C74.0911898,31.3962184 69.5233834,34.5987607 67.7554281,39.4805073 C65.0253414,47.0181607 70.3830759,54.5703852 68.9776309,62.270528 C68.6345487,64.1497531 67.7956089,66.1398067 66.0660683,66.9513705 C62.803034,68.4826565 59.2454876,64.9052405 55.6517344,65.1847399 C52.821858,65.4046305 50.6975741,68.0371353 49.9478268,70.7747283 C49.1985211,73.5123214 49.4700727,76.4084299 49.3786724,79.2453711 C49.2868306,82.0823123 48.7229747,85.1122096 46.7099607,87.1128603 C44.5185616,89.291013 41.1645686,89.730794 38.5024801,91.2991699 C35.7617962,92.9139083 33.8600522,95.6846174 32.6652253,98.63327 C31.4703984,101.581923 30.9078671,104.739427 30.2724806,107.856751 C28.3261403,117.405211 25.619014,126.841076 21.4958456,135.670696 C20.7624356,137.240838 18.3405488,142.939447 15.8095999,141.568002 C15.1402142,141.20505 14.7291337,140.510054 14.3683896,139.839344 C9.8703476,131.475114 8.15670266,121.952264 5.98031618,112.708031 C5.49902966,110.667641 4.99301649,108.630783 4.48876952,106.593926 Z" fill="#A4DDBC"></path><path d="M73.7582632,13.8350005 C73.4491801,13.5590335 72.9709844,13.5753707 72.6923681,13.895934 C70.9372177,15.8541962 68.8875553,23.5366771 68.7868825,24.0466642 C66.371619,36.4514931 58.51561,47.7498045 47.777622,54.2661591 C46.4004361,55.1020081 45.0519507,55.8959101 43.7317244,56.6725917 C41.8639795,57.7676289 40.061142,58.8269008 38.324095,59.921938 C38.0816856,58.487351 38.1390867,57.0050768 38.3051085,55.4358178 C38.4962985,53.5627743 38.702501,51.6265895 38.2031111,49.6939372 C37.3738853,46.501992 35.5706063,43.6182468 33.9832439,41.0669867 C33.769535,40.7230213 33.2939886,40.6068944 32.9416338,40.8303173 C32.5906038,41.0484417 32.4828662,41.5138325 32.7049645,41.8719273 C34.3108719,44.4461479 35.9688819,47.1055871 36.7367326,50.0763171 C37.1685658,51.7374179 36.9897392,53.46166 36.7998739,55.2803932 C36.6100085,57.1008926 36.4876999,58.9796762 36.9376366,60.8328501 C32.172017,63.9726927 27.940228,67.5395115 24.3893048,73.1502526 C23.2721902,74.915117 22.2778258,76.8177442 21.3298238,78.7698247 C19.271772,72.8672208 15.5309836,67.6061851 10.4973447,63.8764354 C10.1511717,63.6278443 9.69637798,63.6984918 9.43895592,64.0305354 C9.19168946,64.3709683 9.25836309,64.8429823 9.59305592,65.0889242 C14.7953658,68.9400994 18.6372686,74.4731282 20.4462877,80.6799582 C18.5772182,84.8870205 17.0547632,89.4627748 15.9425056,94.4421034 C15.9164543,94.4844919 15.8811305,94.527322 15.8555208,94.569269 C15.7420432,94.7586928 15.7292383,94.9719601 15.7844317,95.1675655 C15.2179266,97.811109 14.7423801,100.544287 14.3900254,103.3905 C12.9501398,115.061919 13.8102739,126.743052 14.638175,138.033416 C14.7825609,140.025235 14.9273885,142.016614 15.063385,144.018589 C15.0850208,144.351957 15.3283134,144.62395 15.637838,144.699896 C15.7124595,144.718 15.7897303,144.725065 15.8696503,144.720208 C16.2833801,144.693715 16.5964371,144.332971 16.5712689,143.913501 C16.4352724,141.911525 16.2908864,139.920147 16.1416434,137.921263 C15.282834,126.185819 14.4712701,115.099892 15.8877538,103.574625 C16.2529133,100.631713 16.7368492,97.8009534 17.3333795,95.0819054 C19.9389499,90.8898556 24.0435733,86.390489 27.0774446,83.5411844 C30.607615,80.2128011 34.8817925,80.7969682 39.4036781,81.4111604 C40.3918609,81.5436246 41.3857838,81.6774134 42.3713173,81.7727876 C42.7881379,81.8081114 43.1599207,81.5038854 43.19966,81.094571 C43.2349837,80.6777504 42.9351731,80.2887473 42.5214434,80.2662284 C41.5478316,80.173945 40.5764276,80.0454547 39.6067898,79.9116659 C34.9316874,79.2780456 30.0976279,78.6236725 26.0473148,82.4386409 C23.7773203,84.569548 20.9306651,87.6113672 18.505246,90.7719625 C20.2555393,84.4931604 22.5922075,78.8122132 25.6614025,73.9596088 C30.6301339,66.1168462 37.0524389,62.3416171 44.4951596,57.9716238 C45.8224507,57.1905267 47.1824163,56.399274 48.566667,55.559451 C48.7053128,55.4751155 48.8311538,55.3695857 48.9689165,55.2839256 C49.2214816,55.3757674 49.4736051,55.4715831 49.7270532,55.5338413 C51.1717959,55.8870791 52.6425898,55.8098083 54.0762938,55.7351869 C55.1651493,55.6795519 56.1939545,55.6217092 57.1896436,55.7497579 C58.0806859,55.8826636 59.3545498,56.1882144 60.3052011,57.0465822 C60.6226736,57.3128352 61.0924799,57.306212 61.3755116,56.9927135 C61.6532449,56.6778903 61.6294013,56.2041101 61.3216429,55.9224029 C60.3396418,55.0441654 58.9968965,54.4485181 57.3856905,54.2546789 C56.2482648,54.1098514 55.1037743,54.1703433 53.9959322,54.2273029 C52.8465846,54.283821 51.7621446,54.2462895 50.7125867,54.0899817 C60.6787501,47.2053768 67.9399949,36.2973931 70.2704813,24.3380854 C70.4576974,23.3997974 72.4751268,16.3959747 73.8187552,14.9022203 C74.0956053,14.5918125 74.0717618,14.1180323 73.7582632,13.8350005 Z" fill="#FFFFFF"></path></g><g transform="translate(31.349856, 95.815757)"><path d="M7.26080326,40.7676176 C5.59396232,38.6146331 8.01540754,25.530263 5.79884026,26.7281807 C3.58227298,27.9256569 -1.50258535,35.1771877 0.756812015,39.9357426 C3.01620938,44.6938559 4.2494509,47.2848553 1.19173607,54.1147084 C-0.32630343,57.539349 1.96797617,55.8204055 3.41139418,55.5236857 C3.68824432,55.4773233 4.56957267,54.6737072 5.81915143,53.3742336 C9.52240836,51.9188938 11.3764653,52.8205334 14.3900254,54.1752004 C17.9753892,55.8093668 23.7534768,51.3126494 24.7469581,49.4268011 C25.7404395,47.5413942 15.5574764,50.1390168 13.9546598,48.8717761 C12.3302074,47.5851074 14.0345799,46.6949481 16.6516305,46.9232281 C19.2395391,47.184624 31.7560794,50.6551856 39.3060962,41.3645895 C46.848165,32.126096 34.6301106,39.6354904 26.9891351,40.5004815 C19.3481597,41.3650311 14.4337386,42.3801482 19.6042571,40.4717809 C24.7747756,38.5634137 34.4548163,39.0040778 38.5607644,35.8403917 C42.6958545,32.6444725 49.8484787,27.492499 43.311813,28.524395 C36.7535114,29.5364213 23.7203607,37.0802564 21.6662828,36.5309716 C21.3616152,36.4338312 21.2397482,36.2647186 21.3002402,36.0231922 C21.3903158,35.7494329 21.6923341,35.3705854 22.190841,34.9917378 C23.8567988,33.5346318 27.6382096,31.5578247 30.5780313,30.7758445 C35.0791642,29.5664465 41.7778778,27.6156907 41.6061159,25.1527401 C41.4043288,22.7224639 39.5931019,21.2083983 33.4282189,25.829632 C29.645925,28.6343403 27.0549257,30.2040408 24.9898091,31.5379551 C27.5119271,28.1305348 28.8233225,24.2828919 33.9192195,16.6269039 C39.1113738,8.8212313 37.1416315,6.39537061 34.1470579,6.06332707 C31.1604322,5.67918095 29.234403,14.2981836 28.1221454,20.1005562 C26.9586684,25.9157337 22.5273,34.0525668 21.7024897,31.3564792 C20.8993152,28.6798196 29.1686125,12.1089922 29.9435279,3.6357002 C30.7184434,-4.83759186 24.9465375,4.22075032 21.373537,9.4031906 C17.8221723,14.6050589 18.9997789,27.2637775 17.0790483,33.8763894 C15.1366819,40.4686901 16.0069715,34.1523565 16.5266727,24.2656716 C17.0463738,14.3789867 25.3346575,-1.16877562 14.58254,8.19379263 C3.80878672,17.5373743 8.91439777,33.9730883 9.41202154,37.3805085 C9.90920376,40.7874872 8.94928001,42.9400302 7.26080326,40.7676176 Z" fill="#56BC8A"></path><path d="M21.2997986,36.0236338 C21.6234528,35.6646558 21.896329,35.3189243 22.1903994,34.9921794 C21.6918926,35.3710269 21.3898743,35.7498745 21.2997986,36.0236338 Z" fill="#ADADEA"></path></g></g><g fill="#8952FF"><ellipse id="Oval" cx="174.528245" cy="417.362698" rx="154.760269" ry="32.5348266"></ellipse><path d="M229.675316,338.464808 C95.0189465,364.049491 33.5282848,266.155301 8.40185231,189.229945 C-16.7245802,112.304588 25.1633922,153.19576 60.6349229,169.471551 C96.1064537,185.747343 106.577082,133.395192 65.567823,77.5525008 C24.5585637,21.7098096 4.0425222,-35.8119134 146.252643,82.9195477 C234.059951,156.229826 232.746098,68.107451 232.048486,23.967373 C231.350875,-20.172705 300.078051,-7.05055574 286.65572,105.054088 C273.232893,217.158733 295.905776,213.377438 325.451079,195.538222 C445.469103,123.071429 438.143185,137.757499 385.791035,219.541827 C331.188763,304.840014 264.766232,327.925311 229.675316,338.464808 Z" id="Path"></path><circle id="Oval" cx="167.119523" cy="46.7024544" r="16.0356721"></circle><circle id="Oval" cx="158.860823" cy="11.7491312" r="4.72852968"></circle><circle id="Oval" cx="208.32074" cy="49.8974904" r="9.26145392"></circle></g></g><g id="Group" transform="translate(0.000000, 49.894841)"><g transform="translate(152.577118, 44.875623)"><g><g transform="translate(16.513868, 16.513868)"><path d="M178.18998,20.2508594 L178.18998,24.5167801 L182.455901,24.5167801 L182.455901,20.2508594 L178.18998,20.2508594 Z M0.219051604,127.793054 L0.219051604,132.058975 L4.48497231,132.058975 L4.48497231,127.793054 L0.219051604,127.793054 Z" id="Shape" fill="#8D8DCC"></path><path d="M182.455901,15.6012341 L182.455901,20.2513451 L178.18998,20.2513451 L178.18998,15.6012341 C178.18998,9.54404438 173.241648,4.59571236 167.141716,4.59571236 L27.2643963,4.59571236 L27.2643963,0.329791661 L167.141716,0.329791661 C175.588074,0.329791661 182.455901,7.197618 182.455901,15.6012341 Z" id="Path" fill="#FFFFFF"></path><path d="M27.2643963,0.329791661 L27.2643963,4.59571236 L15.4909797,4.59571236 C9.39104825,4.59571236 4.48497231,9.54404438 4.48497231,15.6012341 L4.48497231,127.793054 L0.219051604,127.793054 L0.219051604,15.6012341 C0.219051604,7.197618 7.04413617,0.329791661 15.4909797,0.329791661 L27.2643963,0.329791661 Z" id="Path" fill="#FFFFFF"></path><path d="M155.367814,147.671866 L155.367814,151.937787 L15.4909797,151.937787 C7.04462187,151.937787 0.219051604,145.06996 0.219051604,136.665859 L0.219051604,132.058975 L4.48497231,132.058975 L4.48497231,136.665859 C4.48497231,142.723534 9.39056255,147.671866 15.4909797,147.671866 L155.367814,147.671866 Z" id="Path" fill="#FFFFFF"></path><path d="M182.455901,24.5167801 L182.455901,136.665859 C182.455901,145.069475 175.588074,151.937787 167.141716,151.937787 L155.367814,151.937787 L155.367814,147.671866 L167.141716,147.671866 C173.241648,147.671866 178.18998,142.723534 178.18998,136.665859 L178.18998,24.5167801 L182.455901,24.5167801 Z" id="Path" fill="#FFFFFF"></path></g><path d="M201.230712,36.7647275 L20.9988404,36.7647275 L20.9988404,41.0306482 L201.230712,41.0306482 C206.818713,41.0306482 211.340599,45.5525339 211.340599,51.1405354 L211.340599,134.153808 C211.340599,139.741809 206.818713,144.306437 201.230712,144.306437 L198.969769,144.306437 L198.969769,148.572357 L201.230712,148.572357 C209.16514,148.572357 215.60652,142.088236 215.60652,134.153808 L215.60652,51.1405354 C215.60652,43.2065932 209.16514,36.7647275 201.230712,36.7647275 Z M14.4297208,144.306922 C8.84171928,144.306922 4.31934792,139.742295 4.31934792,134.154293 L4.31934792,51.1405354 C4.31934792,45.5525339 8.84123358,41.0306482 14.4297208,41.0306482 L16.7334054,41.0306482 L16.7334054,36.7647275 L14.4297208,36.7647275 C6.4952929,36.7647275 0.0534272205,43.2061075 0.0534272205,51.1405354 L0.0534272205,134.153808 C0.0534272205,142.088236 6.4948072,148.572357 14.4297208,148.572357 L194.703848,148.572357 L194.703848,144.306437 L14.4297208,144.306437 L14.4297208,144.306922 Z" id="Shape" fill="#3F2870"></path><path d="M171.881682,170.285666 C171.881682,176.044634 167.189315,180.737001 161.473088,180.737001 L54.1868584,180.737001 C48.4706315,180.737001 43.7782644,176.044634 43.7782644,170.285666 L43.7782644,168.451169 L39.5123437,168.451169 L39.5123437,170.285666 C39.5123437,178.391061 46.081949,185.002922 54.1868584,185.002922 L161.473088,185.002922 C169.578483,185.002922 176.147603,178.391061 176.147603,170.285666 L176.147603,21.1090948 L171.881682,21.1090948 L171.881682,170.285666 L171.881682,170.285666 Z M161.473088,0.291906904 L54.1868584,0.291906904 C46.081949,0.291906904 39.5123437,6.90376829 39.5123437,15.0091633 L39.5123437,164.185734 L43.7782644,164.185734 L43.7782644,15.0091633 C43.7782644,9.25019467 48.4706315,4.55782761 54.1868584,4.55782761 L161.473088,4.55782761 C167.189315,4.55782761 171.881682,9.25019467 171.881682,15.0091633 L171.881682,16.8436598 L176.147603,16.8436598 L176.147603,15.0091633 C176.147603,6.90376829 169.577998,0.291906904 161.473088,0.291906904 Z" id="Shape" fill="#3F2870"></path><path d="M171.955509,154.95011 L43.7078376,154.95011 C37.564193,154.95011 32.5838046,149.969722 32.5838046,143.826077 L32.5838046,41.4760369 C32.5838046,35.3323923 37.564193,30.3520039 43.7078376,30.3520039 L171.955509,30.3520039 C178.099154,30.3520039 183.079542,35.3323923 183.079542,41.4760369 L183.079542,143.826077 C183.079542,149.969722 178.099154,154.95011 171.955509,154.95011 Z" id="Path" fill="#FFFFFF"></path><rect id="Rectangle" fill="#3F2870" x="44.9726057" y="41.816514" width="19.1964003" height="8.35407447"></rect></g><g transform="translate(56.827134, 54.884326)" id="Path"><polygon fill="#574A96" points="0.0296278223 57.7489969 47.653195 84.0638458 51.4115571 0.138910773"></polygon><polygon fill="#3F2870" points="47.5740256 84.0638458 93.6482034 60.1197084 51.3328734 0.138910773"></polygon></g><polygon id="Path" fill="#3F2870" points="115.950182 38.1727776 118.032873 43.8010924 123.661673 45.8842683 118.032873 47.9669585 115.950182 53.5952733 113.867492 47.9669585 108.238692 45.8842683 113.867492 43.8010924"></polygon><polygon id="Path" fill="#3F2870" points="100.326606 48.349206 101.427207 51.3231594 104.40116 52.4237601 101.427207 53.5243609 100.326606 56.4983142 99.2260052 53.5243609 96.2520519 52.4237601 99.2260052 51.3231594"></polygon><polygon id="Path" fill="#3F2870" points="124.108519 55.6041368 125.489855 59.3372424 129.223447 60.7190646 125.489855 62.1004011 124.108519 65.8335067 122.727182 62.1004011 118.994077 60.7190646 122.727182 59.3372424"></polygon></g><g transform="translate(0.000000, 111.571787)"><path d="M81.2283599,98.3450819 C98.2698766,94.9623883 106.440709,90.7540013 112.932778,75.9449475 C115.899976,68.7477271 110.369596,50.9034774 102.361254,33.351532 L95.5525947,32.7081976 L99.8841734,74.5730601 C90.1286281,78.4330664 78.1229579,80.8456806 74.6718245,86.7986209 L81.2283599,98.3450819 Z" id="Path" fill="#FFCAC0"></path><path d="M79.5906611,82.3350196 C83.7526856,79.9405087 92.790275,76.7759395 92.790275,76.7759395 C92.790275,76.7759395 100.309383,88.9149569 99.8497328,92.180199 C98.7626434,93.4196221 93.3400014,97.8130174 90.2522614,96.319263 C87.1645213,94.8255086 79.5906611,82.3350196 79.5906611,82.3350196 Z" id="Path" fill="#00D6FF"></path><path d="M112.957946,75.940532 C109.460451,83.9449009 105.447669,88.7975054 99.8303047,92.134278 L99.8263307,92.1877053 C98.7697081,93.3966617 93.3395598,97.8214068 90.2328333,96.3007181 L90.18338,96.2433169 C90.0725516,96.2887963 89.9617233,96.3342757 89.7979092,96.3757811 C89.5391625,96.249057 89.2309625,96.0644903 88.9717743,95.9382078 C86.3949044,94.5106854 83.6617269,93.0178141 82.0227034,90.5336692 C82.8929931,90.3839847 83.709414,90.2307678 84.5876515,89.9742288 C89.1629642,89.0818618 93.6102283,87.7505968 97.9254698,86.033861 C99.5865706,85.3534367 101.247671,84.6721292 102.863734,83.8808765 C104.147312,83.2256204 105.377463,82.5659488 106.463228,81.6810881 C107.323803,80.9406133 108.036461,80.0274935 108.695249,79.1103999 C110.565643,76.3520541 111.918103,73.3398186 112.749095,70.1280038 C112.985322,69.1256915 113.221109,68.1238208 113.548295,67.3427237 C113.977921,70.9174903 113.811457,73.857312 112.957946,75.940532 Z" id="Path" fill="#000000" opacity="0.0594494048"></path><path d="M102.360812,33.351532 C102.445589,31.7036776 103.056249,31.1433541 102.430577,29.7387922 C100.455094,27.2904126 98.1652299,25.7732562 95.6757864,24.8490978 L94.2080833,29.5259664 L96.2069678,33.351532 L99.8691608,35.8427416 L102.360812,33.351532 Z" id="Path" fill="#EDB6A4"></path><g transform="translate(0.000000, 0.139671)"><path d="M133.529192,65.559172 L22.3533304,95.0633604 C18.7145394,96.0290243 14.9816988,93.8619103 14.0160349,90.2231192 L0.229604579,38.2746417 C-0.736059294,34.6358507 1.43105469,30.9030101 5.06984572,29.9373462 L116.245707,0.433157869 C119.884498,-0.532506004 123.617339,1.63460798 124.583003,5.27339901 L138.368992,57.221435 C139.334656,60.8606675 137.167983,64.5935081 133.529192,65.559172 Z" id="Path" fill="#FFFFFF"></path><polygon id="Path" fill="#9D6FFF" points="50.9642686 39.2601752 45.8851504 69.9013478 76.8327568 72.8884151"></polygon><polygon id="Path" fill="#5C29CA" points="61.2576185 18.6169574 83.1716094 52.2178213 101.042352 26.4076174"></polygon><polygon id="Path" fill="#442389" points="106.153703 46.1187289 99.7720204 63.4640302 120.71549 66.0907949 130.639707 43.4257322"></polygon><rect id="Rectangle" fill="#BA9BFF" transform="translate(17.605216, 37.191114) rotate(-14.863135) translate(-17.605216, -37.191114) " x="9.69457225" y="33.8966498" width="15.8212868" height="6.58892817"></rect><rect id="Rectangle" fill="#BA9BFF" transform="translate(21.518026, 47.065393) rotate(-14.863135) translate(-21.518026, -47.065393) " x="12.3582988" y="43.7709285" width="18.3194544" height="6.58892817"></rect></g><g transform="translate(29.583667, 224.887230)" id="Path"><path d="M13.0587604,0.234903146 L7.74253133,2.50710538 C6.44261617,1.74587789 5.42484972,2.13797187 4.40884946,2.53668905 L1.03012977,5.22129643 L14.2606521,20.1385293 L17.3382365,18.1776179 L14.6893945,9.70344274 L17.7585895,7.20251902 L13.0587604,0.234903146 Z" fill="#FFCAC0"></path><path d="M4.73868527,1.7776693 C2.95924978,1.97062545 1.69907388,3.11997299 0.0326744978,5.14402566 L15.3071191,23.1180903 C17.7391614,25.7395564 19.8484327,25.1796744 18.8130044,22.1528679 L15.0554372,9.78468743 C13.8469223,9.93657969 12.5916034,9.70829976 11.1945479,8.32184134 C9.74715592,6.9556941 8.53466712,5.49152336 7.62949523,3.89797927 C8.33111383,3.31116295 8.94751382,2.68858131 8.31345194,1.54409079 L4.73868527,1.7776693 Z" fill="#1D1B47"></path></g><path d="M59.5399997,145.700585 L77.8893794,139.120647 C84.2057131,150.507268 89.1854832,174.693903 84.9501618,188.987229 C78.4563261,202.735245 73.5207108,213.765979 48.6695475,234.032999 L40.8245772,224.216961 L65.5733015,189.217717 C61.3415125,172.516633 57.0920616,157.6621 59.5399997,145.700585 Z" id="Path" fill="#3F3B98"></path><path d="M84.9669406,188.99297 C81.0230404,197.293175 77.6394637,204.615795 70.0982779,213.621593 C72.0755266,207.921218 75.6940064,202.786906 77.3290559,196.928016 C78.2470327,193.540906 78.5106364,190.016035 78.7269946,186.532227 C78.8581341,184.193792 78.9883906,181.855358 78.4956238,179.558871 C77.6323989,175.108074 74.1402016,170.859065 73.9512194,166.281986 C73.779899,162.060353 79.6096476,161.122948 82.7795154,161.980432 C83.6917521,162.225933 84.5907423,162.648052 85.3947999,163.150974 C86.8775156,172.34443 87.049719,181.883176 84.9669406,188.99297 Z" id="Path" fill="#000000" opacity="0.1"></path><g transform="translate(84.777075, 237.692101)" id="Path"><path d="M7.25020612,0.33601747 L4.60710418,5.47783539 C3.12041454,5.72112794 2.58746698,6.6726623 2.05937645,7.62817058 L1.17098335,11.8511286 L20.8767963,14.8938309 L21.994794,11.4201785 L14.5480994,6.58611903 L15.315067,2.70182773 L7.25020612,0.33601747 Z" fill="#FFCAC0"></path><path d="M1.82844723,6.8333855 C0.581517751,8.11740495 0.344406868,9.80632325 0.353004242,12.4286725 L23.5830395,16.520491 C27.1286641,16.9867649 28.3950216,15.2099787 25.6662595,13.5400469 L14.881026,6.41524024 C14.0473847,7.30319179 12.9355687,7.92842272 10.9746573,7.75268691 C8.98857771,7.62463821 7.12039123,7.27095884 5.40718783,6.62144281 C5.57276806,5.72201103 5.65003883,4.84951363 4.43180992,4.37264258 L1.82844723,6.8333855 Z" fill="#1D1B47"></path></g><path d="M67.7638175,144.869593 L89.7100413,133.750991 C98.203203,144.216544 105.169494,167.779273 109.932023,178.04613 C114.808471,189.323689 108.554396,209.580552 102.353306,241.043445 L90.0495912,238.491743 L92.1570963,190.513217 C81.2385155,174.53318 68.0698098,160.208062 67.7638175,144.869593 Z" id="Path" fill="#3F3B98"></path><path d="M91.5927989,104.285217 C92.5628782,114.730018 93.6177346,135.261083 95.6563584,141.95803 C95.2576412,144.623209 57.6731378,154.812354 58.025051,150.127979 C60.6005962,115.831678 52.1860299,105.744531 61.6881271,86.3597229 C66.4100336,79.1713334 80.4812619,79.9038603 86.0041351,86.5111736 C89.6389522,93.129084 91.084578,98.9892994 91.5927989,104.285217 Z" id="Path" fill="#00D6FF"></path><path d="M68.8076352,81.7459955 C69.496449,79.1179062 69.6267054,76.6059438 68.889763,74.2741326 L77.4769743,72.5931622 L81.1166484,82.105415 C76.7493044,82.8489806 72.6084741,82.8520714 68.8076352,81.7459955 Z" id="Path" fill="#FFCAC0"></path><g transform="translate(68.881374, 83.592105)" id="Path"><path d="M2.96189907,15.5879432 C13.6093699,29.7580781 18.6668523,36.7221615 34.8005478,37.7968876 C42.5775199,38.1421776 59.0286879,25.3796954 72.8160013,11.8846862 L67.8561009,6.3812411 L32.8886482,24.2767103 C25.9439928,16.4123119 18.3661586,6.72211559 11.5950312,5.49902966 L2.96189907,15.5879432 Z" fill="#FFCAC0"></path><path d="M12.1076676,3.85470764 C22.1029731,7.70853219 22.9741458,11.2731433 27.5635881,17.0114916 C26.4906283,23.3927327 22.2751765,28.2700638 16.8503268,32.5694095 L0.418145262,16.8631317 L12.1076676,3.85470764 Z" fill="#00D6FF"></path><path d="M72.8160013,11.8846862 C74.9349867,12.354051 76.9126769,12.5478902 78.4708972,11.9239839 C80.2737347,10.630692 81.9935613,8.3205167 83.6807134,5.61029957 C82.6201168,3.63349246 80.6375696,2.2942796 78.1759436,1.28711028 L72.9603873,3.42199132 L72.3616492,0.329835808 L70.0073192,1.59840111 L67.8561009,6.38079955 L72.8160013,11.8846862 Z" fill="#FFCAC0"></path></g><path d="M103.704882,121.408862 C99.3772772,121.138635 95.8903784,120.394628 92.8092616,119.251462 C93.4724656,128.318635 94.3749882,137.779227 95.6726956,141.955822 C95.5353744,143.072937 88.7505591,145.517343 80.9674054,147.672093 C83.5782744,145.773882 86.1600013,143.551574 87.245766,140.519911 C88.2458706,137.910808 87.9813838,134.992622 87.5937053,132.280197 C86.8700093,127.609952 85.6694423,122.850514 82.779957,119.145049 C79.9355095,115.550413 75.7143176,113.141331 73.2677042,109.254832 C72.3572337,107.791103 71.7302366,106.133534 71.1027979,104.476407 C74.6223712,109.087485 79.3305897,112.875078 84.6887658,115.154786 C85.2062592,115.408234 85.6751824,115.604281 86.1966497,115.804744 C86.4063847,115.874067 86.6156781,115.94339 86.8249715,116.012713 C88.7068459,116.690488 90.6615757,117.105101 92.6286687,117.359873 L92.682096,117.363847 C94.3860269,117.544882 96.0488939,117.562102 97.7607726,117.636282 C102.584677,117.729007 107.568862,117.833654 112.324326,116.686514 C112.923506,116.570387 114.764758,115.634748 115.327731,115.999025 C115.635931,116.18315 115.722915,116.458234 115.699072,116.778356 C110.861038,119.743787 106.648236,121.521898 103.704882,121.408862 Z" id="Path" fill="#000000" opacity="0.0594494048"></path><path d="M79.342953,77.5574781 C78.469131,77.7605899 77.5498296,77.8528732 76.6181648,78.1049967 C75.5226861,78.3986257 74.3861434,78.5284406 73.2862492,78.8754967 C72.1907704,79.1691256 71.1367971,79.6270102 70.3746865,80.4827288 C70.0263057,80.8324342 69.7852209,81.1896459 69.4368401,81.5393514 C69.3220378,81.638258 69.2076771,81.7371646 69.0924332,81.8356296 C68.9855788,81.8276817 68.9361255,81.7702806 68.8297126,81.7623327 C69.5096954,79.1293864 69.6439258,76.6169824 68.908308,74.2538215 L77.0252714,72.6602774 C77.2389803,72.6761731 77.3948465,72.7415221 77.5511542,72.8068711 L79.342953,77.5574781 Z" id="Path" fill="#FFB3A5"></path><path d="M68.1819628,75.2128621 C74.359209,77.4139753 79.8635373,78.5615566 83.3897337,76.6143332 C84.1990899,68.1247039 82.7724507,60.5415711 76.8336399,54.7868856 L61.6461801,61.2979416 L68.1819628,75.2128621 Z" id="Path" fill="#FFCAC0"></path><path d="M82.4545366,64.1331166 C82.2302306,64.3503578 82.0341836,64.464277 81.8372535,64.5781962 C81.4442765,64.8060346 81.0031708,64.7994114 80.6132845,64.8064762 C79.0303376,64.7172836 77.4376766,64.4589785 75.8860795,64.0456902 C75.7796666,65.0696383 75.9969078,66.1244947 76.4384551,66.9625515 C76.6662935,67.3555285 76.8663144,67.8518277 76.5629714,68.1591445 C76.390768,68.3900738 76.0282577,68.2938165 75.7182915,68.2108056 C74.466505,67.7114156 73.5352818,66.6322741 73.0350088,65.3910847 C72.6243698,64.2293739 72.527671,62.9294587 72.9096094,61.7019573 C73.3299624,60.5398049 74.3053403,59.5812058 75.4533632,59.2222279 C76.0671139,58.9979219 76.7289932,59.0080774 77.3913141,59.018233 C78.2081766,59.0698941 79.0775831,59.1348015 79.8807576,59.2381236 C80.0498702,59.2275264 80.2565143,59.2827198 80.411939,59.3242253 C81.2844364,60.830343 81.9608868,62.4508215 82.4545366,64.1331166 Z" id="Path" fill="#FFB3A5"></path><path d="M83.0515085,61.6516209 C80.7634106,63.5586636 77.7564737,63.5560143 74.4170517,62.7276716 C74.7159792,64.832969 75.2630563,66.6971815 76.2141491,67.5030053 C76.030907,68.190936 76.0004402,68.3052967 75.2749781,68.7260912 C74.185681,67.5153686 73.1158119,66.0026277 72.1603036,66.3620472 C70.9226467,67.3215294 70.678471,68.2381815 70.9160234,69.6520159 C71.3063512,71.4133479 73.5993062,72.9446338 75.8458987,74.6481232 C73.7224979,76.1692535 72.1828226,77.1097492 70.4903719,76.7821211 C68.0680436,77.1190217 65.2902697,76.2562383 62.7641778,73.9875685 C60.2950455,71.7343528 61.0924799,68.5097331 59.1933851,66.6530268 C57.5079991,64.9150968 58.2272796,56.4524019 61.3759532,56.6157744 C64.237621,56.7027592 62.415797,55.1825119 64.2716202,51.4417235 C66.1424559,47.6435339 77.6725797,47.074821 80.2057364,48.8705937 C83.523081,51.2222745 88.2816359,56.271809 83.0515085,61.6516209 Z" id="Path" fill="#191826"></path></g><g transform="translate(189.599507, 129.017416)"><g opacity="0.1" transform="translate(1.942808, 3.885616)" id="Path"><path d="M115.380454,81.0408365 L88.951465,81.0408365 C88.1995983,80.2889698 87.4482173,79.421506 86.6963506,78.4962437 C86.8697462,77.9182583 87.1587389,77.3393015 87.5055302,76.8769132 L87.3321346,76.7613161 L78.0212271,69.3009334 C77.442756,68.838545 77.0376806,68.2022754 76.8064864,67.5082073 C76.6326051,66.5251464 76.8064864,65.484287 77.5005546,64.6746218 L76.3440981,66.1205566 L70.098456,61.1469681 L64.6624792,56.8674477 L40.5464033,37.6671618 L40.3730077,37.5515647 L40.3152092,37.5515647 L23.8907102,24.5396081 L21.2305203,22.4578893 C21.056639,22.3422922 20.9415276,22.2266951 20.8254448,22.0528138 C20.0157796,21.0697529 19.9579811,19.5660195 20.7676463,18.5829587 L21.8085057,17.3104194 C22.6759695,16.1534773 24.2952999,15.9222831 25.5100407,16.7902326 C25.5678392,16.7902326 25.6256377,16.7902326 25.6834363,16.8475454 L28.3436262,18.9297499 L65.6450544,48.5396012 L65.7606514,48.6551983 L67.9001688,50.3323273 L76.1702168,56.8674477 L80.7387298,60.5106985 L80.218543,61.1469681 L79.5822734,61.9566333 C79.8712661,61.6098421 80.218543,61.3203637 80.5658199,61.1469681 C81.5488808,60.5689827 82.8209343,60.5689827 83.8044809,61.1469681 C83.9778765,61.2047666 84.0934736,61.3203637 84.2668692,61.4359608 L91.9584461,67.5082073 L97.857297,72.1923174 L97.857297,71.0358609 L100.864278,72.1345188 L103.755662,76.7608304 L103.813461,76.8764275 L103.987342,77.0503088 L115.380454,81.0408365 Z" fill="#000000"></path><path d="M136.20007,88.3278237 C134.060553,93.7638005 128.797486,97.5809325 122.609643,97.5809325 L120.354042,97.5809325 C118.041129,96.2510805 115.727731,94.8051456 113.298735,93.3014122 L122.609643,93.3014122 C126.889163,93.3014122 130.590212,90.6990208 132.210028,86.940173 L136.20007,88.3278237 Z" fill="#000000"></path><path d="M136.778056,68.7224623 C136.778056,68.7224623 136.951937,68.6646637 137.298728,68.5485809 L137.298728,82.8330769 C137.298728,84.2790118 137.067048,85.6666624 136.662459,86.9970002 C135.274808,86.9396873 133.828873,86.765806 132.32514,86.4190148 C130.070025,85.9561408 127.640544,85.1469612 124.923041,84.0483033 C123.477106,83.4120337 121.799977,82.3711743 119.949453,81.0408365 C118.387921,79.8838943 116.76859,78.4384452 115.033663,76.7613161 L133.019208,76.7613161 L133.019208,70.9780624 C134.291747,70.4573898 135.563801,69.8794044 136.894138,69.3009334 C136.835854,68.9536564 136.778056,68.7224623 136.778056,68.7224623 Z" fill="#000000"></path><polygon fill="#000000" points="155.862745 56.8674477 155.862745 61.1464824 153.607144 61.1464824 154.821399 56.8674477"></polygon><path d="M166.619101,60.3368172 C166.734698,60.3368172 166.792982,60.3946157 166.90858,60.3946157 C165.520929,60.9152883 163.958911,61.1464824 162.397379,61.1464824 L160.141779,61.1464824 L160.141779,56.866962 L162.397379,56.866962 C163.553836,56.866962 164.710778,56.6352822 165.751637,56.2306924 C165.809922,57.5610302 166.156713,58.9491665 166.619101,60.3368172 Z" fill="#000000"></path><path d="M176.739674,32.6935733 L176.739674,43.9128039 C176.50848,44.2595951 176.219487,44.6068721 175.87221,44.9536633 C173.905603,47.0931806 174.079484,50.6208343 171.129816,52.8186358 C169.857762,53.6860996 169.048097,54.4379663 168.238432,54.9581532 C170.783024,53.1076285 172.460153,50.1001617 172.460153,46.7463894 L172.460153,27.7772976 C172.806945,28.1240888 173.096423,28.5291643 173.269819,28.9920383 C174.715754,32.9247675 175.525419,30.7852501 176.739674,32.6935733 Z" fill="#000000"></path><polygon fill="#3F2870" points="8.966059 6.6648029 9.82332303 1.66061515 5.14795554 3.63887941 0.144739197 2.78161538 2.12203206 7.45698287 1.26525372 12.4606849 5.94013551 10.4829064 10.9443233 11.3396847"></polygon><polygon fill="#3F2870" points="21.6963085 3.17066268 22.1572397 0.481330686 19.6442176 1.54453237 16.9548856 1.08360117 18.0180872 3.59662334 17.5576417 6.28595534 20.0701782 5.22275365 22.7595102 5.68319915"></polygon><polygon fill="#3F2870" points="11.9880969 21.8701898 10.2444267 22.6074855 8.37884527 22.2878936 9.11662662 24.0315638 8.7970347 25.8966595 10.5402192 25.1593638 12.4058006 25.4789557 11.6685049 23.7357712"></polygon></g><g><path d="M159.152404,79.1684553 C159.25003,79.3802213 159.27043,79.5638167 159.368542,79.7755828 C159.392827,79.8285243 159.392827,79.8285243 159.417597,79.8814658 C158.932867,80.3623108 158.525849,80.8718122 158.09406,81.3283721 C155.631065,85.0367069 149.986236,89.5080795 148.592757,89.8305857 C148.360106,89.7451021 148.181367,89.6353335 147.89966,89.4434812 C143.390888,91.7840791 138.119079,92.6131724 130.724752,92.0453868 C128.927654,91.9113331 126.72791,91.3216908 124.172632,90.3813717 C127.277239,90.4250849 130.491615,91.1244958 133.603993,90.907387 C137.73926,90.5387392 141.580191,88.7003571 144.846537,86.0343388 C146.023393,85.1051909 147.151679,84.0701599 148.125026,82.9778161 C149.611274,81.3274007 150.999896,79.4652192 151.642966,77.2402183 C151.943615,75.9443654 151.870274,75.7855408 153.288038,75.5159762 C154.416324,75.315867 155.618436,75.2745823 156.62044,75.7753411 C157.933292,76.3902398 158.69973,77.7710906 159.152404,79.1684553 Z" id="Path" fill="#000000" opacity="0.1"></path><g transform="translate(202.537736, 213.223180)" id="Path"><path d="M4.92793253,0.478416474 L10.9001244,2.48485145 C12.2460046,1.54501808 13.3854615,1.88258097 14.523947,2.22742939 L18.427534,4.85022021 L5.35146468,22.2043528 L1.83789638,20.3411999 L3.97887082,10.9059528 L0.427417764,8.45607189 L4.92793253,0.478416474 Z" fill="#FFCAC0"></path><path d="M14.0999292,1.43136381 C16.049537,1.48624813 17.5187856,2.62521933 19.5048211,4.67973881 L4.47380116,25.5318973 C2.0593765,28.5908485 -0.280250056,28.1658592 0.581385299,24.7878018 L3.58836641,11.0259212 C4.91433288,11.0856625 6.25827032,10.7286716 7.65563499,9.10156986 C9.10934109,7.49195341 10.299311,5.79588202 11.1439468,3.98615635 C10.3308816,3.40962807 9.60718564,2.7869581 10.1963422,1.48867664 L14.0999292,1.43136381 Z" fill="#393768"></path></g><path d="M182.209164,128.894141 L161.704768,123.340624 C155.832631,136.25884 152.525,162.965165 158.36751,178.12441 C166.616673,192.49439 172.936141,204.048269 201.6931,223.905224 L209.362335,212.560682 L179.436777,176.691589 C182.581697,158.181 185.907299,141.675389 182.209164,128.894141 Z" id="Path" fill="#647FFF"></path><path d="M158.349539,178.132181 C163.355184,186.805848 167.66676,194.466826 176.641562,203.594138 C173.998372,197.573861 169.621225,192.310309 167.336483,186.08798 C166.045001,182.488443 165.452445,178.682482 164.914773,174.916834 C164.569439,172.387784 164.224105,169.859219 164.56021,167.321912 C165.110996,162.41195 168.535681,157.493246 168.343343,152.504115 C168.162662,147.90306 161.748481,147.391616 158.379167,148.5981 C157.409705,148.944405 156.469872,149.48062 155.639807,150.096976 C154.827228,160.212692 155.46884,170.589229 158.349539,178.132181 Z" id="Path" fill="#000000" opacity="0.1"></path><g transform="translate(134.539455, 231.679856)" id="Path"><path d="M20.4009413,0.332705873 L23.7192574,5.68854187 C25.3551017,5.82405273 26.0171136,6.8109992 26.6737827,7.8028027 L28.0055776,12.3130315 L6.86345502,17.3303332 L5.34709336,13.6540547 L13.016328,7.7556896 L11.8453005,3.60293747 L20.4009413,0.332705873 Z" fill="#FFCAC0"></path><path d="M26.8549495,6.91931075 C28.3207982,8.20544966 28.7253879,10.0200323 28.9434681,12.8691603 L4.06435437,19.3323969 C0.253536446,20.1469191 -1.27691057,18.326508 1.54210386,16.2758742 L12.6389376,7.59929356 C13.6215127,8.49152814 14.8838522,9.07388484 16.9985987,8.71300825 C19.1449159,8.40118757 21.1435796,7.85477281 22.9484483,7.00042299 C22.6905405,6.03776161 22.5307446,5.09647113 23.8125122,4.47282976 L26.8549495,6.91931075 Z" fill="#393768"></path></g><g transform="translate(88.883467, 37.884756)" id="Path"><path d="M75.6539156,37.6759045 C59.7549462,47.9567588 52.2809637,52.5199291 35.9676905,45.8585261 C28.1867444,42.4780402 13.3339771,27.2362256 5.74974032,9.2574802 L11.1449182,3.75399079 L43.0239692,33.2293026 C53.5845879,28.8482705 64.8081898,21.6287959 72.0237788,23.6682587 L75.6539156,37.6759045 Z" fill="#FFCAC0"></path><path d="M64.7897331,23.907224 C59.7170614,25.1909344 47.7984199,30.5239424 47.7984199,30.5239424 C47.7984199,30.5239424 50.8515427,47.0178968 53.6885281,49.2234696 C55.4793114,49.3686945 65.9947598,45.3077401 67.2770131,41.7966003 C68.5592664,38.2854605 64.7897331,23.907224 64.7897331,23.907224 Z" fill="#F50788"></path><path d="M11.6762762,5.01147328 C11.6544196,2.04723395 11.6762762,0.336105787 11.6762762,0.336105787 L0.448788652,6.17084396 C0.832493235,9.36482034 4.26252079,8.31716112 5.76625419,9.44398977 L11.6762762,5.01147328 Z" fill="#FFCAC0"></path></g><path d="M173.202792,128.706174 L148.396533,118.535088 C140.079858,130.642182 134.559855,156.843377 130.277906,168.409884 C125.960501,181.084764 134.514684,202.546478 143.984416,236.185228 L157.128484,232.344296 L150.67059,180.408667 C161.142811,162.10013 174.203338,145.394895 173.202792,128.706174 Z" id="Path" fill="#647FFF"></path><path d="M145.368181,86.6900365 C145.221985,98.1200618 149.046403,104.466244 142.650679,127.966936 C143.315605,130.82772 185.028664,138.630523 184.239398,133.571937 C178.461487,96.5395874 187.690797,81.4978821 174.719153,64.618766 C170.300722,58.9379954 159.787217,58.0049618 152.92619,61.7171823 C150.851271,62.8396396 149.577761,65.1180677 148.318335,66.895737 C144.944649,74.4012901 145.459979,80.8926974 145.368181,86.6900365 Z" id="Path" fill="#F50788"></path><path d="M166.584616,60.2255914 C165.60787,57.4308621 165.247964,54.7133594 165.846349,52.1163107 L156.37176,51.0361095 L153.244325,61.6856116 C158.053261,62.6448731 162.551347,62.3680229 166.584616,60.2255914 Z" id="Path" fill="#FFCAC0"></path><path d="M154.775743,56.5910833 C155.742776,56.7358225 156.749151,56.756222 157.78321,56.9490457 C158.998922,57.1729543 160.244748,57.2147247 161.469688,57.4964318 C162.685401,57.7203405 163.870028,58.1259016 164.771976,58.9894798 C165.180452,59.3391852 165.473816,59.706376 165.882291,60.0560814 C166.015859,60.1537075 166.148456,60.2508479 166.282024,60.3479883 C166.397621,60.3300173 166.446191,60.2634762 166.561303,60.2455052 C165.593784,57.4444617 165.229508,54.726959 165.823521,52.0959113 L156.867662,51.0701086 C156.636954,51.1060506 156.473272,51.1905627 156.309105,51.2750749 L154.775743,56.5910833 Z" id="Path" fill="#FFB3A5"></path><path d="M167.434109,53.9498358 C160.486628,55.6245363 154.38961,56.2350637 150.792501,53.7191274 C150.89207,44.4261909 153.31038,36.3722803 160.40843,30.819735 L176.117975,39.6225981 L167.434109,53.9498358 Z" id="Path" fill="#FFCAC0"></path><path d="M153.241897,40.3006381 C153.459977,40.5619458 153.6596,40.7081421 153.859709,40.8538527 C154.259442,41.1457596 154.738344,41.1894728 155.159448,41.2419286 C156.885147,41.3274121 158.64096,41.2307574 160.370059,40.9616785 C160.367631,42.0836501 160.01064,43.2017362 159.435568,44.0590002 C159.143662,44.4587329 158.869726,44.9735771 159.16309,45.3412535 C159.323371,45.6113038 159.72699,45.5486482 160.07281,45.4947353 C161.486688,45.0974311 162.619831,44.0352008 163.305156,42.7480905 C163.884113,41.536264 164.138135,40.1388993 163.865656,38.7648484 C163.543636,37.4573386 162.597003,36.3057391 161.393919,35.7845809 C160.754735,35.4708174 160.036382,35.4057333 159.317543,35.3406492 C158.42628,35.3027645 157.477218,35.2731366 156.594697,35.2925647 C156.412559,35.2619655 156.182336,35.2979074 156.008941,35.3246211 C154.889883,36.8560395 153.97045,38.5346256 153.241897,40.3006381 Z" id="Path" fill="#FFB3A5"></path><path d="M152.880534,37.5433078 C155.140506,39.8732203 158.399566,40.2161259 162.113729,39.7032246 C161.547886,41.9500821 160.740164,43.9074612 159.616735,44.6714704 C159.736218,45.4379082 159.756132,45.5651621 160.493913,46.104777 C161.813565,44.9177213 163.147303,43.4018454 164.141049,43.901147 C165.371818,45.0833457 165.531129,46.104777 165.110996,47.6094818 C164.485412,49.4731204 161.824251,50.869028 159.193689,52.4563021 C161.320092,54.3490829 162.880167,55.5453669 164.752063,55.3845995 C167.33794,56.0281547 168.039294,54.6366184 171.037532,52.4689304 C173.972144,50.3114421 173.79632,46.7575605 175.758556,44.6301858 C178.931161,41.1909299 179.636886,38.2184336 176.949011,32.9033966 C175.540961,30.1193527 174.760438,32.9072822 173.179964,28.6394187 C171.58929,24.3079282 160.989815,24.4104113 158.038204,26.0647123 C154.172502,28.231429 147.831662,31.1111562 152.880534,37.5433078 Z" id="Path" fill="#191826"></path><path d="M179.602401,134.049382 C179.485833,134.516141 179.25221,134.924617 178.960303,135.274322 C167.877555,135.274322 143.145123,130.199708 142.678364,127.982964 C143.202922,125.941558 143.728451,124.016721 144.078157,122.266737 C150.844471,119.583233 158.311168,118.6502 164.202248,114.450335 C168.63525,111.358841 171.843798,106.633932 173.476728,101.442749 C174.293678,98.8180155 174.759952,96.0762277 174.876521,93.2761557 C174.934805,91.2347502 173.885203,87.3263061 174.701668,85.6346061 C178.259921,87.9096342 178.959818,93.8011995 178.551342,97.5925894 C178.026784,102.142646 176.043177,106.459079 174.468531,110.775513 C172.835115,115.091947 171.610175,119.758572 172.484924,124.249858 C173.302361,128.333155 175.985379,132.007976 179.602401,134.049382 Z" id="Path" fill="#FFC17F" opacity="0.235392"></path><g><rect id="Rectangle" fill="#6868D8" transform="translate(52.254936, 42.189456) rotate(-51.605937) translate(-52.254936, -42.189456) " x="48.6777914" y="8.73565893" width="7.15428987" height="66.907595"></rect><path d="M21.6933943,16.9665424 L20.6952767,18.2259677 C19.7437865,19.4266231 19.9458385,21.170779 21.1464939,22.1222692 L23.7950269,24.2209875 L28.2382288,18.6140436 L25.5896958,16.5153252 C24.3895261,15.563835 22.6448845,15.7658871 21.6933943,16.9665424 Z" id="Path" fill="#393768"></path><path d="M79.5186464,61.6253846 L77.3883574,64.3137452 C76.2479291,65.7528802 76.4898087,67.844313 77.9294295,68.9852271 L99.5922245,86.151393 C101.03136,87.2918213 103.122792,87.0499417 104.263706,85.610321 L106.393995,82.9219604 C107.534424,81.4828253 107.292544,79.3913925 105.852923,78.2504785 L84.1901283,61.0843125 C82.7505076,59.9438842 80.6590747,60.1857638 79.5186464,61.6253846 Z" id="Path" fill="#393768"></path><polygon id="Path" fill="#574A96" points="0.0568271345 2.4484238 5.06052918 3.30568784 9.73541097 1.32742358 8.87863264 6.33112562 10.8564112 11.0064931 5.85270915 10.1492291 1.17782736 12.1274933 2.0346057 7.12379129"></polygon><polygon id="Path" fill="#574A96" points="16.8674592 0.750409596 19.5567912 1.2113408 22.0693277 0.148139111 21.6088822 2.83747111 22.6720839 5.35000758 19.9827519 4.88956208 17.4697297 5.95276376 17.9306609 3.26343177"></polygon><polygon id="Path" fill="#574A96" points="8.29141891 21.954702 10.1570003 22.2742939 11.9001848 21.5369983 11.5805929 23.4025797 12.3183742 25.1457642 10.4527928 24.8261722 8.70912264 25.5634679 9.02871455 23.6978865"></polygon></g><g transform="translate(86.454957, 65.569771)" id="Path"><path d="M88.7586413,11.5033663 C79.3423366,28.368397 74.903506,36.6311594 57.6401996,40.1607559 C49.292925,41.6761462 29.6540502,30.3107193 12.7846482,17.7630937 L17.332276,11.0919767 L57.7193691,25.2807893 C64.0636086,15.7688013 70.8231234,4.192094 77.9551717,1.87675254 L88.7586413,11.5033663 Z" fill="#FFCAC0"></path><path d="M77.1595918,0.176309828 C66.9326504,5.80559606 66.5149467,9.78252407 62.4020221,16.6532646 C64.4978262,23.3860658 69.7662359,28.034234 76.2552146,31.8795367 L91.6922814,12.5063409 L77.1595918,0.176309828 Z" fill="#F50788"></path><path d="M12.7841625,17.7630937 C10.56499,18.5810159 8.457529,19.0808032 6.68374528,18.6359002 C4.54714216,17.5042145 2.3507977,15.2617284 0.130653839,12.5830818 C0.985489366,10.2925112 2.92975449,8.5556408 5.43986245,7.10679172 L11.3853407,8.64598138 L11.2950001,5.112985 L14.3063525,6.24321356 L17.3317903,11.091491 L12.7841625,17.7630937 Z" fill="#FFCAC0"></path></g><g transform="translate(150.567621, 4.857020)" id="Path"><g fill="#647FFF"><path d="M26.9239192,31.2942658 C19.2857695,29.5787663 12.2032629,26.6004417 5.78471087,22.1135265 L14.6614007,1.67372911 C15.2044155,0.423046446 16.8407456,-0.0718838966 18.3158226,0.568757047 C24.3317276,2.5679065 29.5981944,4.85507723 34.1142517,7.42978356 C35.5893287,8.0704245 36.3445953,9.60378573 35.8010947,10.8544684 L26.9239192,31.2942658 Z"></path><path d="M28.5631635,30.8318775 C20.2518308,28.4752514 12.3990008,25.0646519 5.00321634,20.6000791 C3.52862506,19.9599239 1.81409699,20.636021 1.17394174,22.1106123 L0.682411316,23.2427837 C0.0422560744,24.717375 0.718353264,26.4319031 2.19245885,27.0720583 C9.44253266,31.8722512 17.2958484,35.2828507 25.752406,37.3038567 C27.2269972,37.944012 28.9415253,37.2679148 29.5816806,35.7933235 L30.073211,34.6611521 C30.7138519,33.1870465 30.0377547,31.4725185 28.5631635,30.8318775 Z"></path></g><path d="M35.8103231,10.8559255 L27.3032525,30.4603155 C27.7233847,30.6001977 28.1435169,30.7405655 28.5636492,30.8454772 C30.0343548,31.4754327 30.6992809,33.1909322 30.0693254,34.6616378 L29.5792521,35.7821523 C28.9492966,37.2523723 27.2333114,37.9527546 25.7630914,37.2873429 C17.2909913,35.292079 9.44933249,31.8610801 2.20265859,27.0647728 C0.732438622,26.4348173 0.0320563323,24.7193178 0.697468078,23.2490978 L1.1875414,22.0936128 C1.29245303,21.8483333 1.39736467,21.63851 1.57270309,21.4636573 C1.60767363,21.4636573 1.60767363,21.4986278 1.60767363,21.4986278 C3.95312861,25.5945528 8.22390633,28.2552284 12.4951698,30.2504922 C15.050448,31.4759184 17.7111236,32.5260061 20.4067697,33.4012411 C21.1770931,33.6465206 22.0518424,33.926285 22.8221658,33.6465206 C23.6274597,33.4012411 24.2224446,32.4210945 23.7673419,31.7211979 C23.6274597,31.4409478 23.3472096,31.2660951 23.242298,31.0208156 C23.1373864,30.8109923 23.1373864,30.5657128 23.2073275,30.3204333 C23.2772685,30.11061 23.3472096,29.8653305 23.452607,29.6904778 C23.5225481,29.5505956 23.5924891,29.4107135 23.6624302,29.3053161 C24.5376652,27.6247872 25.6576941,26.0846261 26.673297,24.4740383 C28.1435169,21.9887011 29.2640315,19.3280256 29.9988986,16.5624383 C30.5938835,14.2869245 30.9440747,11.9064989 30.5938835,9.5960145 C30.4190308,8.47549997 30.1038102,7.39044169 29.6137369,6.37532451 C29.3334868,5.85028064 28.6335902,5.14989835 28.3883107,4.48497231 C30.4190308,5.43014841 32.3443536,6.41029505 34.1297941,7.42541224 C35.6004998,8.05488204 36.3358526,9.59552879 35.8103231,10.8559255 Z" fill="#000000" opacity="0.1"></path></g></g></g><g transform="translate(341.316037, 0.000000)" id="Path"><g transform="translate(1.324642, 15.895702)"><path d="M63.8402285,12.6428229 C64.8191388,13.3519478 64.7948537,14.7953658 63.7925414,15.4709331 C58.4838186,19.0509984 43.2076078,28.3442437 28.4488904,27.7583105 C15.9478042,27.2620114 4.56604029,19.6585674 0.759019752,16.8423789 C-0.0273759305,16.2608612 -0.181917474,15.1826028 0.417262167,14.4094535 C3.14734892,10.887231 11.4471129,1.80813606 25.3779292,0.372665893 C42.6062204,-1.40279567 58.4904418,8.76736253 63.8402285,12.6428229 Z" fill="#FFFFFF"></path><path d="M41.0396524,14.7620255 C41.225553,19.5195434 37.2350949,22.9873064 32.4504194,22.8339169 C27.9778694,22.6903053 23.9820999,19.3912096 23.2244378,15.2105828 C22.4124114,10.7314271 25.510859,6.51046684 30.5261138,6.05152068 C35.9428513,5.55560215 40.8387547,9.61522848 41.0396524,14.7620255 Z" fill="#393768"></path></g><path d="M56.6725917,34.3457542 C56.6725917,35.0279447 56.6297616,35.7101352 56.6297616,36.3923257 C56.3317172,40.6139592 55.222992,44.5371066 53.2611975,47.7352335 C50.6600426,52.0420855 46.8221137,54.685629 42.1743872,55.4106496 C41.364148,55.5382568 40.5967388,55.5810869 39.7864996,55.5810869 C32.0258648,55.5810869 24.0943513,50.0379025 18.9348714,41.5946356 C19.958378,41.9355101 21.0242731,42.2768262 22.1329983,42.4900935 C27.2929197,49.9098538 34.797457,54.3447545 41.8335127,53.2784179 C45.8418788,52.681446 49.1676128,50.378777 51.4278933,46.6265083 C53.0055417,44.0253533 53.9862181,40.9124451 54.3275342,37.543881 C54.881676,33.0237616 54.2847041,27.9495004 52.5794485,22.9604579 C52.3237927,22.2354373 52.0676953,21.5532467 51.8120394,20.8706147 C47.3771386,9.91185305 38.37973,2.40687415 30.0221233,2.40687415 C28.8710096,2.40687415 27.7622844,2.5773114 26.6963893,2.83296726 C22.3467072,3.94169245 18.8929245,7.35308664 16.9311299,12.3421292 C16.1208907,14.5167495 15.5667489,16.9046371 15.3958701,19.4205734 C14.6708495,19.7618895 13.9462704,20.1455941 13.2636384,20.5292986 C13.348857,17.3311718 13.9034403,14.3034822 14.9693354,11.5742785 C17.1439557,5.90304541 21.1099333,2.06511657 26.1413644,0.785954135 C36.8444701,-1.98563806 49.5517589,7.60830096 54.5408015,22.1493356 C54.5408015,22.1921656 54.5836316,22.2345542 54.5836316,22.2769427 C55.9904012,26.3718521 56.6725917,30.4654368 56.6725917,34.3457542 Z" fill="#FFFFFF"></path><path d="M48.9971756,19.762331 C48.272155,19.421015 47.5047458,19.1653591 46.7373367,18.9092617 C46.3960206,17.2035646 45.6714416,15.7539649 44.5198863,14.6024097 C42.7289706,12.8114939 40.1278156,12.0012547 37.0577375,12.0012547 C32.5804482,12.0012547 27.0796523,13.7921704 21.7064636,17.1607345 C19.3614061,18.5679457 17.015907,20.3164728 14.7984567,22.3206559 C10.5344347,26.1157546 7.16587059,30.5078253 5.03363884,34.7718473 C3.37077184,38.0551927 2.47531398,41.2961497 2.47531398,44.1529605 L2.47531398,44.7499324 C2.5605326,47.6924034 3.66925779,49.9522423 5.67344083,51.4875022 C11.6003298,56.0076215 24.0947928,52.3401299 34.1152665,43.5559886 C35.3515988,43.47077 36.5883727,43.3003327 37.7823165,43.0870654 C29.8084144,50.9757489 19.9579365,55.5382568 12.3253504,55.5382568 C9.21244218,55.5382568 6.48368007,54.7708476 4.39383685,53.1931992 C1.87834207,51.2742348 0.470689387,48.3745939 0.343082226,44.8355926 C0.172203434,41.3818099 1.19571,37.5010509 3.24272313,33.578345 C5.45973196,29.1434443 8.95634476,24.7089851 13.3912455,20.700619 C13.6045128,20.4873516 13.8173386,20.3169144 14.030606,20.1036471 C21.6208035,13.494126 30.2345076,9.86990606 37.0144658,9.86990606 C40.6386858,9.86990606 43.7944241,10.8934126 46.0118745,13.0680329 C47.8032318,14.815677 48.7839082,17.1187875 48.9971756,19.762331 Z" fill="#3F2870"></path></g></g></g></g></g></svg> 